<svg width="109" height="109" viewBox="0 0 109 109" fill="none" xmlns="http://www.w3.org/2000/svg">
<g clip-path="url(#clip0_51_109)">
<path d="M109 0H0V109H109V0Z" fill="url(#paint0_linear_51_109)"/>
<path fill-rule="evenodd" clip-rule="evenodd" d="M75.1033 71.0176C75.1033 68.764 73.2694 66.9301 71.0158 66.9301C68.7623 66.9301 66.9283 68.764 66.9283 71.0176C66.9283 73.2712 68.7623 75.1051 71.0158 75.1051C73.2694 75.1051 75.1033 73.2712 75.1033 71.0176ZM77.8283 71.0176C77.8283 74.774 74.7722 77.8301 71.0158 77.8301C67.2594 77.8301 64.2033 74.774 64.2033 71.0176C64.2033 67.2612 67.2594 64.2051 71.0158 64.2051C74.7722 64.2051 77.8283 67.2612 77.8283 71.0176ZM41.4087 51.3554C41.4087 49.1018 39.5748 47.2678 37.3212 47.2678C35.0663 47.2678 33.2337 49.1018 33.2337 51.3554C33.2337 53.6089 35.0663 55.4428 37.3212 55.4428C39.5748 55.4428 41.4087 53.6089 41.4087 51.3554ZM44.1337 51.3554C44.1337 55.1118 41.0763 58.1679 37.3212 58.1679C33.5648 58.1679 30.5087 55.1118 30.5087 51.3554C30.5087 47.5989 33.5648 44.5428 37.3212 44.5428C41.0763 44.5428 44.1337 47.5989 44.1337 51.3554ZM54.1317 29.9845C54.1317 32.2381 55.9657 34.072 58.2192 34.072C60.4742 34.072 62.3067 32.2381 62.3067 29.9845C62.3067 27.7296 60.4742 25.897 58.2192 25.897C55.9657 25.897 54.1317 27.7296 54.1317 29.9845ZM51.4067 29.9845C51.4067 26.2281 54.4642 23.172 58.2192 23.172C61.9756 23.172 65.0317 26.2281 65.0317 29.9845C65.0317 33.7409 61.9756 36.797 58.2192 36.797C54.4642 36.797 51.4067 33.7409 51.4067 29.9845ZM89.9246 54.5C89.9246 41.8655 83.1503 30.1766 72.2285 23.856C70.2705 24.2511 68.3767 24.792 66.0141 25.6463L65.0876 23.0835C66.3207 22.6393 67.4243 22.2796 68.487 21.9717C64.0998 20.0792 59.3338 19.075 54.4996 19.075C52.1983 19.075 49.9339 19.3134 47.7212 19.7453C49.3235 20.6827 50.7446 21.6174 52.1248 22.6638L50.4775 24.8343C48.5319 23.3601 46.5154 22.1106 43.868 20.7236C30.4896 24.931 20.854 36.7303 19.3239 50.5869C22.1293 50.0187 24.823 49.7094 27.8137 49.6359L27.8804 52.3595C24.7467 52.4372 22.0544 52.7696 19.1114 53.4168C19.0991 53.7779 19.0746 54.143 19.0746 54.5C19.0746 66.2965 24.9102 77.1665 34.5076 83.7215C32.8004 78.638 31.9502 73.8339 31.9502 69.1414C31.9502 66.4655 32.4108 64.2678 32.8972 61.942C33.0103 61.4038 33.1247 60.8561 33.2364 60.2879L35.911 60.8152C35.7966 61.3929 35.6794 61.9529 35.5649 62.502C35.0881 64.7801 34.6752 66.7475 34.6752 69.1414C34.6752 74.4661 35.8443 79.9719 38.2232 85.9506C43.2903 88.5816 48.7621 89.925 54.4996 89.925C58.2547 89.925 61.9198 89.3255 65.416 88.1728C66.788 85.4655 67.8058 82.9109 68.656 79.9774L71.2733 80.7363C70.652 82.8754 69.9395 84.8197 69.0906 86.7599C71.2897 85.7707 73.3702 84.5472 75.3227 83.1193C74.8526 81.9666 74.3485 80.8208 73.7912 79.7049L76.2288 78.4854C76.7029 79.4337 77.1375 80.4038 77.5531 81.3794C85.4352 74.6309 89.9246 64.9367 89.9246 54.5ZM92.6496 54.5C92.6496 66.3905 87.2459 77.3886 77.827 84.678C75.4944 86.4901 72.9642 87.9943 70.2896 89.2056C69.1547 89.7206 67.9993 90.1975 66.8112 90.5981C62.8872 91.9592 58.7411 92.65 54.4996 92.65C48.2321 92.65 42.0082 91.0886 36.4983 88.1347C24.0709 81.4857 16.3496 68.5978 16.3496 54.5C16.3496 53.5653 16.3741 52.8541 16.43 52.196C17.3579 36.2766 28.2797 22.4976 43.601 17.9387C47.0903 16.8855 50.7595 16.35 54.4996 16.35C61.0505 16.35 67.4965 18.0368 73.1441 21.2264C85.1736 27.9653 92.6496 40.7169 92.6496 54.5ZM50.8399 34.6933L49.0496 32.64C45.9949 35.3051 43.6187 38.135 40.8433 42.4092L43.1295 43.8929C45.7564 39.8449 47.9909 37.1799 50.8399 34.6933ZM46.6993 52.3568L45.8137 54.9333C52.0716 57.0819 57.5312 60.51 62.9934 65.7215L64.875 63.75C59.1171 58.2578 53.3415 54.6376 46.6993 52.3568ZM64.9173 36.3351C70.0294 44.1314 72.9083 52.6892 73.4724 61.773L70.7529 61.942C70.2174 53.3364 67.4883 45.2241 62.6405 37.8298L64.9173 36.3351Z" fill="white"/>
</g>
<defs>
<linearGradient id="paint0_linear_51_109" x1="0" y1="10900" x2="10900" y2="0" gradientUnits="userSpaceOnUse">
<stop stop-color="#4D27A8"/>
<stop offset="1" stop-color="#A166FF"/>
</linearGradient>
<clipPath id="clip0_51_109">
<rect width="109" height="109" rx="20" fill="white"/>
</clipPath>
</defs>
</svg>
