<svg width="166" height="129" viewBox="0 0 166 129" fill="none" xmlns="http://www.w3.org/2000/svg">
<path d="M30.4925 111.843C30.7425 120.143 33.4426 124.468 36.7926 126.643L36.8426 126.668C42.8176 130.543 50.9176 127.468 50.9176 127.468L149.518 84.5685C153.868 82.6435 168.493 70.7435 165.318 54.5185C164.418 49.8935 162.193 46.8185 159.468 44.7685C152.668 39.6185 142.743 41.0185 142.743 41.0185C142.743 41.0185 142.843 39.1435 142.443 36.3935C141.618 30.7685 138.768 21.5185 128.818 17.3935C125.393 15.9935 121.143 15.1685 115.843 15.3435C114.043 15.3935 112.343 15.5685 110.743 15.8185C87.0675 19.6935 83.1676 44.6685 83.1676 44.6685L83.1175 44.6435C82.3176 44.4435 72.4676 42.2685 60.0426 53.3435C47.0676 64.8685 51.7176 79.9685 51.7176 79.9685C51.7176 79.9685 32.2925 86.8434 30.6175 107.743C30.4925 109.043 30.4425 110.418 30.4925 111.843Z" fill="url(#paint0_linear_49_779)"/>
<path d="M0.0175724 96.5184C0.342572 107.868 5.29257 111.843 10.2176 112.943L36.7926 126.643C33.4426 124.468 30.7426 120.143 30.4926 111.843C30.4426 110.418 30.4926 109.043 30.6176 107.743C32.2926 86.8434 51.7176 79.9684 51.7176 79.9684L21.2426 64.6685C21.2426 64.6685 -0.707428 72.4434 0.0175724 96.5184Z" fill="url(#paint1_linear_49_779)"/>
<path d="M21.2426 64.6684L51.7176 79.9684C51.7176 79.9684 47.0676 64.8684 60.0426 53.3434C72.4676 42.2684 82.3176 44.4434 83.1176 44.6434L52.6926 29.3434C52.6926 29.3434 42.5426 26.4684 29.5676 38.0184C16.5926 49.5684 21.2426 64.6684 21.2426 64.6684Z" fill="url(#paint2_linear_49_779)"/>
<path d="M52.6926 29.3434L83.1176 44.6434L83.1676 44.6684C83.1676 44.6684 87.0676 19.6934 110.743 15.8184C112.343 15.5684 114.043 15.3934 115.843 15.3434C121.143 15.1684 125.393 15.9934 128.818 17.3934L101.318 3.59343L101.243 3.56844L98.1426 2.01843L98.1176 1.99344C94.7176 0.64344 90.5426 -0.131566 85.3676 0.0184341C57.1426 0.893434 52.6926 29.3434 52.6926 29.3434Z" fill="url(#paint3_linear_49_779)"/>
<path d="M142.743 41.0184C142.743 41.0184 152.668 39.6184 159.468 44.7684L160.168 44.6684L142.443 36.3934C142.843 39.1434 142.743 41.0184 142.743 41.0184Z" fill="url(#paint4_linear_49_779)"/>
<defs>
<linearGradient id="paint0_linear_49_779" x1="50.2533" y1="127.019" x2="29.3173" y2="46.0667" gradientUnits="userSpaceOnUse">
<stop stop-color="#C6C6C6"/>
<stop offset="1" stop-color="#F4F4F4"/>
</linearGradient>
<linearGradient id="paint1_linear_49_779" x1="1.16557" y1="39.5917" x2="-33.7182" y2="109.926" gradientUnits="userSpaceOnUse">
<stop stop-color="#38ACA8"/>
<stop offset="1" stop-color="#5F637A"/>
</linearGradient>
<linearGradient id="paint2_linear_49_779" x1="41.3473" y1="8.30836" x2="8.68988" y2="74.1544" gradientUnits="userSpaceOnUse">
<stop stop-color="#38ACA8"/>
<stop offset="1" stop-color="#5F637A"/>
</linearGradient>
<linearGradient id="paint3_linear_49_779" x1="87.7574" y1="-20.3526" x2="54.9579" y2="45.78" gradientUnits="userSpaceOnUse">
<stop stop-color="#38ACA8"/>
<stop offset="1" stop-color="#5F637A"/>
</linearGradient>
<linearGradient id="paint4_linear_49_779" x1="151.463" y1="32.0862" x2="144.635" y2="45.8544" gradientUnits="userSpaceOnUse">
<stop stop-color="#38ACA8"/>
<stop offset="1" stop-color="#5F637A"/>
</linearGradient>
</defs>
</svg>
