<svg width="109" height="109" viewBox="0 0 109 109" fill="none" xmlns="http://www.w3.org/2000/svg">
<g clip-path="url(#clip0_51_114)">
<path d="M109 0H0V109H109V0Z" fill="url(#paint0_linear_51_114)"/>
<path fill-rule="evenodd" clip-rule="evenodd" d="M66.3425 55.4258C67.3493 56.3568 67.8535 57.6039 67.8535 59.1701C67.8535 60.8738 67.2403 62.2341 66.0155 63.2509C64.7892 64.2691 63.1419 64.7775 61.075 64.7775C59.4414 64.7775 57.8241 64.4286 56.2245 63.7335V61.6467C58.1198 62.2737 59.7357 62.5858 61.075 62.5858C62.3967 62.5858 63.4131 62.29 64.1257 61.6998C64.8383 61.1083 65.1939 60.2646 65.1939 59.1701C65.1939 57.0655 63.8654 56.0133 61.2045 56.0133C60.3706 56.0133 59.5449 56.0569 58.7274 56.1428V54.4226L64.2047 48.4485H56.4861V46.3099H67.0986V48.3708L61.7263 54.0574C61.8149 54.0396 61.8993 54.0315 61.9879 54.0315H62.2481C63.9703 54.0315 65.3342 54.4963 66.3425 55.4258ZM51.1942 54.9706C52.2528 55.9615 52.7829 57.3259 52.7829 59.0637C52.7829 60.7689 52.167 62.1469 50.9312 63.1992C49.6968 64.2514 48.0727 64.7775 46.0562 64.7775C44.2849 64.7775 42.6241 64.4286 41.0763 63.7335V61.6467C43.0056 62.2737 44.6569 62.5858 46.0303 62.5858C47.3519 62.5858 48.3643 62.2873 49.0673 61.6862C49.7717 61.0865 50.1246 60.2223 50.1246 59.091C50.1246 57.8561 49.7935 56.9606 49.1327 56.4045C48.4719 55.8484 47.3942 55.5689 45.8995 55.5689C44.8218 55.5689 43.4756 55.6575 41.8583 55.8306V54.1091L42.3543 46.3099H51.8713V48.4485H44.5438L44.2046 53.7439C45.161 53.5708 46.0208 53.4835 46.7851 53.4835C48.6627 53.4835 50.1328 53.9783 51.1942 54.9706ZM70.791 74.0897C64.1774 75.2783 58.3855 77.9716 54.4996 80.1661C50.6124 77.9716 44.8204 75.2783 38.2082 74.0897C36.347 73.7558 27.0711 71.8189 27.0711 66.4568C27.0711 63.972 27.9608 62.3241 29.6694 59.3813C31.7104 55.862 34.2501 51.4812 34.2501 45.1745C34.2501 40.667 33.0688 36.3449 30.7362 32.3117C31.0101 31.9737 31.2894 31.6315 31.5701 31.2867C35.0254 33.0136 38.6224 33.8887 42.2793 33.8887C46.7483 33.8887 50.8549 32.7151 54.4996 30.3994C58.1429 32.7151 62.2495 33.8887 66.7185 33.8887C70.3755 33.8887 73.9738 33.0136 77.4291 31.2867C77.7084 31.6315 77.9877 31.9737 78.2616 32.3117C75.929 36.3449 74.7477 40.667 74.7477 45.1745C74.7477 51.4812 77.2874 55.862 79.3325 59.3868C81.037 62.3241 81.9267 63.972 81.9267 66.4568C81.9267 71.8189 72.6508 73.7558 70.791 74.0897ZM77.4727 45.1745C77.4727 40.8715 78.6867 36.747 81.0779 32.9155C81.3885 32.4207 81.349 31.7842 80.9784 31.3317C80.2863 30.4839 79.5601 29.5911 78.8434 28.7038C78.4278 28.1899 77.7057 28.0481 77.1253 28.3671C73.7694 30.2222 70.2692 31.1627 66.7185 31.1627C62.4348 31.1627 58.692 30.0109 55.2749 27.6433C54.8089 27.3203 54.189 27.3203 53.723 27.6433C50.3058 30.0109 46.563 31.1627 42.2793 31.1627C38.7287 31.1627 35.2284 30.2222 31.8726 28.3671C31.2935 28.0481 30.57 28.1899 30.1545 28.7038C29.4378 29.5911 28.7116 30.4839 28.0194 31.3317C27.6502 31.7842 27.6093 32.4207 27.92 32.9155C30.3125 36.747 31.5251 40.8715 31.5251 45.1745C31.5251 50.7479 29.1884 54.7757 27.3109 58.0169C25.4715 61.1819 24.3461 63.2837 24.3461 66.4568C24.3461 73.7994 34.5867 76.2106 37.7259 76.7735C44.3476 77.9634 50.1301 80.7699 53.8143 82.9139C54.0255 83.038 54.2625 83.0993 54.4996 83.0993C54.7353 83.0993 54.9724 83.038 55.1849 82.9139C58.8691 80.7699 64.6502 77.9634 71.272 76.7735C74.4112 76.2106 84.6517 73.7994 84.6517 66.4568C84.6517 63.2837 83.5263 61.1819 81.6869 58.0128C79.8094 54.7757 77.4727 50.7479 77.4727 45.1745ZM72.2039 81.9639C63.8504 83.466 56.8472 87.9585 54.4996 89.6036C52.1507 87.9585 45.1474 83.466 36.7939 81.9639C20.3513 79.0102 19.0746 69.3478 19.0746 66.4568C19.0746 61.7012 20.9426 58.4831 22.7493 55.3686C24.4715 52.4013 26.2523 49.3318 26.2523 45.1745C26.2523 38.6075 22.4604 33.9691 20.5897 32.0813C22.5572 29.6879 27.5276 23.6279 29.9787 20.4697C33.6929 23.9754 38.0106 25.8878 42.2793 25.8878C47.0181 25.8878 50.9367 23.9591 54.4996 19.8441C58.0612 23.9591 61.9797 25.8878 66.7185 25.8878C70.9872 25.8878 75.305 23.9754 79.0205 20.4697C81.4717 23.6279 86.4407 29.6879 88.4081 32.0813C86.5374 33.9691 82.7456 38.6075 82.7456 45.1745C82.7456 49.3318 84.5277 52.4013 86.2486 55.3686C88.0566 58.4831 89.9246 61.7012 89.9246 66.4568C89.9246 69.3478 88.6466 79.0102 72.2039 81.9639ZM88.6057 54.0015C86.923 51.101 85.4706 48.5971 85.4706 45.1745C85.4706 37.9696 91.0786 33.3094 91.1331 33.2658C91.4152 33.0368 91.595 32.7042 91.6332 32.3417C91.6686 31.9791 91.5596 31.6179 91.328 31.3371C91.2367 31.2281 82.3055 20.4002 80.259 17.5951C80.0192 17.2666 79.6473 17.0622 79.2412 17.0376C78.8339 17.0077 78.4415 17.1699 78.1635 17.467C74.73 21.139 70.667 23.1617 66.7185 23.1617C62.3531 23.1617 58.9196 21.2167 55.5814 16.855C55.065 16.1817 53.9342 16.1817 53.4178 16.855C50.0783 21.2167 46.6448 23.1617 42.2793 23.1617C38.3308 23.1617 34.2678 21.139 30.8343 17.467C30.5564 17.1699 30.1613 17.0008 29.7566 17.0376C29.3519 17.0622 28.9786 17.2666 28.7388 17.5951C26.6923 20.4002 17.7612 31.2281 17.6699 31.3371C17.4396 31.6179 17.3306 31.9791 17.3674 32.3403C17.4028 32.7015 17.5813 33.0341 17.862 33.2631C17.9192 33.3094 23.5273 37.9696 23.5273 45.1745C23.5273 48.5971 22.0748 51.101 20.3921 54.0015C18.4969 57.2673 16.3496 60.9679 16.3496 66.4568C16.3496 75.6013 23.812 82.4014 36.313 84.6477C45.7237 86.3392 53.5922 92.3079 53.6698 92.3692C53.9137 92.5559 54.2067 92.65 54.4996 92.65C54.7912 92.65 55.0841 92.556 55.3294 92.3679C55.4084 92.3079 63.2496 86.3433 72.6849 84.6477C85.1858 82.4014 92.6496 75.6013 92.6496 66.4568C92.6496 60.9679 90.5009 57.2673 88.6057 54.0015Z" fill="white"/>
</g>
<defs>
<linearGradient id="paint0_linear_51_114" x1="0" y1="10900" x2="10900" y2="0" gradientUnits="userSpaceOnUse">
<stop stop-color="#4D27A8"/>
<stop offset="1" stop-color="#A166FF"/>
</linearGradient>
<clipPath id="clip0_51_114">
<rect width="109" height="109" rx="20" fill="white"/>
</clipPath>
</defs>
</svg>
