<svg width="109" height="109" viewBox="0 0 109 109" fill="none" xmlns="http://www.w3.org/2000/svg">
<g clip-path="url(#clip0_51_119)">
<path d="M109 0H0V109H109V0Z" fill="url(#paint0_linear_51_119)"/>
<path fill-rule="evenodd" clip-rule="evenodd" d="M82.8885 58.4412L83.4117 54.757C88.2363 57.6468 88.2989 58.8404 88.2976 58.8731C88.2894 58.8799 87.4665 59.5666 82.8885 58.4412ZM80.2411 57.7054C71.9026 55.1821 60.29 49.8547 55.5908 47.6338C55.5908 47.6147 55.5962 47.597 55.5962 47.578C55.5962 45.7726 54.1275 44.3039 52.3208 44.3039C50.5168 44.3039 49.0481 45.7726 49.0481 47.578C49.0481 49.3833 50.5168 50.852 52.3208 50.852C53.1138 50.852 53.8332 50.5564 54.4013 50.0863C59.9303 52.7037 71.453 57.9534 79.8528 60.4331L76.531 83.8763C76.5215 83.9404 76.5174 84.0044 76.5174 84.0684C76.5174 86.1326 67.3791 89.9245 52.4475 89.9245C37.3578 89.9245 28.1228 86.1326 28.1228 84.0684C28.1228 84.0058 28.1187 83.9444 28.1105 83.8831L21.1699 33.1886C27.1772 37.3238 40.0978 39.512 52.4557 39.512C64.7945 39.512 77.6932 37.332 83.7128 33.209L80.2411 57.7054ZM20.4369 27.9007C20.535 26.1077 30.8382 19.0745 52.4557 19.0745C74.0704 19.0745 84.3749 26.1063 84.4744 27.9007V28.5125C83.289 32.5332 69.9365 36.787 52.4557 36.787C34.9448 36.787 21.5855 32.5196 20.4369 28.4934V27.9007ZM87.1994 27.9307C87.1994 23.2096 73.6643 16.3495 52.4557 16.3495C31.247 16.3495 17.7119 23.2096 17.7119 27.9307L17.84 28.958L25.3991 84.172C25.5804 90.3468 42.0475 92.6495 52.4475 92.6495C65.3531 92.6495 79.0639 89.6819 79.2411 84.1761L82.5056 61.1539C84.3218 61.5885 85.8165 61.8106 87.0168 61.8106C88.6287 61.8106 89.7187 61.4169 90.3795 60.6293C90.9218 59.9835 91.1289 59.2014 90.9735 58.369C90.6207 56.4833 88.3821 54.4504 83.8231 51.8494L87.0604 29.0112L87.1994 27.9307Z" fill="white"/>
</g>
<defs>
<linearGradient id="paint0_linear_51_119" x1="0" y1="10900" x2="10900" y2="0" gradientUnits="userSpaceOnUse">
<stop stop-color="#1B660F"/>
<stop offset="1" stop-color="#6CAE3E"/>
</linearGradient>
<clipPath id="clip0_51_119">
<rect width="109" height="109" rx="20" fill="white"/>
</clipPath>
</defs>
</svg>
